<?xml version="1.0" encoding="UTF-8"?><svg id="Ebene_2" xmlns="http://www.w3.org/2000/svg" xmlns:xlink="http://www.w3.org/1999/xlink" viewBox="0 0 181.53 32.92"><defs><style>.cls-1{fill:none;}.cls-2{clip-path:url(#clippath);}.cls-3{fill:#e84427;}.cls-4{fill:#878686;}.cls-5{clip-path:url(#clippath-1);}.cls-6{clip-path:url(#clippath-2);}</style><clipPath id="clippath"><rect class="cls-1" width="181.53" height="32.92"/></clipPath><clipPath id="clippath-1"><rect class="cls-1" width="181.53" height="32.92"/></clipPath><clipPath id="clippath-2"><rect class="cls-1" width="181.53" height="32.92"/></clipPath></defs><g id="Ebene_1-2"><polygon class="cls-3" points="0 2.97 0 6.46 4.35 6.46 4.35 20.63 9.06 20.63 9.06 6.46 13.41 6.46 13.41 2.97 0 2.97"/><polygon class="cls-3" points="14.49 20.63 27.22 20.63 27.22 17.29 19.2 17.29 19.2 13.29 26.51 13.29 26.51 9.95 19.2 9.95 19.2 6.31 26.94 6.31 26.94 2.97 14.49 2.97 14.49 20.63"/><path class="cls-3" d="M39.56,13.52h-4.43l2.28-6.91h.05l2.1,6.91Zm-11.69,7.11h4.78l1.39-3.77h6.63l1.32,3.77h5.16L40.35,2.97h-5.77l-6.71,17.67Z"/><polygon class="cls-3" points="48.11 20.63 52.71 20.63 52.61 7.07 52.66 7.07 56.97 20.63 61.29 20.63 65.8 7.07 65.85 7.07 65.77 20.63 70.38 20.63 70.38 2.97 63.24 2.97 59.32 14.71 59.27 14.71 55.52 2.97 48.11 2.97 48.11 20.63"/><g class="cls-2"><path class="cls-4" d="M73.51,30.04c0,1.69,.98,2.87,2.67,2.87s2.67-1.19,2.67-2.87-.99-2.87-2.67-2.87-2.67,1.23-2.67,2.87m.84,0c0-1.13,.6-2.18,1.83-2.17,1.23,0,1.83,1.04,1.83,2.17s-.55,2.17-1.83,2.17-1.83-1.07-1.83-2.17"/><path class="cls-4" d="M89.18,27.27h-.8v3.15c0,1.07-.33,1.8-1.36,1.8s-1.36-.73-1.36-1.8v-3.15h-.8v3.25c0,1.56,.79,2.39,2.16,2.39s2.16-.84,2.16-2.39v-3.25Z"/></g><polygon class="cls-4" points="96.82 32.82 97.62 32.82 97.62 27.97 99.34 27.97 99.34 27.27 95.09 27.27 95.09 27.97 96.82 27.97 96.82 32.82"/><g class="cls-5"><path class="cls-4" d="M108.28,27.37c-.38-.14-.82-.2-1.19-.2-1,0-1.78,.52-1.78,1.51,0,1.73,2.39,1.38,2.39,2.63,0,.65-.64,.91-1.09,.91-.41,0-.88-.16-1.15-.27l-.08,.74c.37,.12,.75,.23,1.14,.23,1.11,0,2.03-.47,2.03-1.65,0-1.83-2.39-1.58-2.39-2.65,0-.58,.52-.74,.97-.74,.41,0,.64,.07,1.04,.23l.11-.73Z"/><path class="cls-4" d="M114.53,30.04c0,1.69,.98,2.87,2.67,2.87s2.67-1.19,2.67-2.87-.99-2.87-2.67-2.87-2.67,1.23-2.67,2.87m.84,0c0-1.13,.61-2.18,1.83-2.17,1.23,0,1.83,1.04,1.83,2.17s-.55,2.17-1.83,2.17-1.83-1.07-1.83-2.17"/><path class="cls-4" d="M130.51,27.27h-.8v3.15c0,1.07-.33,1.8-1.36,1.8s-1.36-.73-1.36-1.8v-3.15h-.79v3.25c0,1.56,.79,2.39,2.16,2.39s2.16-.84,2.16-2.39v-3.25Z"/><path class="cls-4" d="M137.87,27.97h.76c.73,0,1.11,.32,1.11,.82,0,.53-.44,.87-1.2,.87h-.68v-1.69Zm-.79,4.85h.79v-2.47h.48c.42,0,.68,0,.93,.54l.85,1.92h.91l-1.05-2.21c-.17-.34-.29-.46-.54-.56v-.02c.64-.11,1.15-.59,1.15-1.26,0-1.33-1.06-1.5-2.16-1.5h-1.36v5.55Z"/><path class="cls-4" d="M151.07,27.41c-.4-.17-.82-.24-1.25-.24-1.7,0-2.94,1.14-2.94,2.85s1.17,2.9,2.93,2.9c.33,0,.84-.02,1.26-.2l-.05-.77c-.28,.17-.81,.27-1.21,.27-1.15,0-2.09-.87-2.09-2.17s.85-2.17,2.13-2.17c.41,0,.8,.1,1.15,.31l.06-.77Z"/></g><rect class="cls-4" x="157.22" y="27.27" width=".8" height="5.56"/><polygon class="cls-4" points="164.61 32.82 165.41 32.82 165.41 28.25 165.42 28.25 167.94 32.82 168.96 32.82 168.96 27.27 168.16 27.27 168.16 31.74 168.14 31.74 165.69 27.27 164.61 27.27 164.61 32.82"/><g class="cls-6"><path class="cls-4" d="M178.64,27.45c-.46-.16-.82-.28-1.63-.28-1.69,0-2.94,1.14-2.94,2.85s1.17,2.9,2.93,2.9c.87,0,1.39-.14,1.7-.25v-2.89h-1.97v.65h1.17v1.69c-.2,.04-.34,.1-.89,.1-1.15,0-2.09-.87-2.09-2.17s.85-2.17,2.13-2.17c.72,0,1.14,.13,1.53,.38l.06-.8Z"/><path class="cls-4" d="M73.67,3v.76c1.96,.16,2.17,.38,2.17,3.31v9.51c0,2.93-.22,3.15-2.28,3.31v.76h7.99v-.76c-2.5-.16-2.72-.38-2.72-3.31v-3.56l1.82,.49c.33,0,.81,0,1.25-.05,2.63-.33,5.38-2.09,5.38-5.54,0-1.82-.68-3.02-1.85-3.83-1.09-.76-2.63-1.09-4.67-1.09h-7.09Zm5.16,2.01c0-.81,.03-.98,1.33-.98,2.28,0,3.8,1.11,3.8,3.91,0,3.59-2.34,4.35-3.48,4.35-.71,0-1.22-.16-1.66-.33V5.01Z"/><path class="cls-4" d="M88.97,3v.76c2.06,.16,2.28,.38,2.28,3.31v9.51c0,2.93-.22,3.15-2.39,3.31v.76h7.66v-.76c-2.06-.16-2.28-.38-2.28-3.31v-3.64h.87c.81,0,1.14,.27,1.58,1.03,.79,1.41,1.68,3.15,2.55,4.4,1.06,1.52,1.98,2.28,4.94,2.5l1.14,.05,.11-.71c-.79-.19-1.22-.6-1.87-1.25-.52-.54-1.22-1.52-2.25-3.02-.87-1.22-1.93-3.12-2.36-3.88,2.2-.82,3.61-2.42,3.61-4.7,0-1.6-.73-2.74-1.79-3.45-1.09-.71-2.5-.92-4.48-.92h-7.31Zm5.27,2.01c0-.87,.05-.98,1.36-.98,1.74,0,3.7,.98,3.7,3.8,0,1.3-.38,2.61-1.47,3.48-.71,.54-1.47,.71-2.55,.71h-1.03V5.01Z"/><path class="cls-4" d="M126.73,14.73c0,1.85-.12,2.86-.4,4.17-.33,1.44-.96,2.17-2.78,3.01l.33,1.39c1.3-.33,2.39-1.52,3.26-2.18,2.39-1.77,2.63-3.08,2.63-6.04V7.08c0-2.93,.22-3.15,2.15-3.31v-.76h-7.66v.76c2.26,.16,2.47,.38,2.47,3.31v7.65Z"/><path class="cls-4" d="M133.58,3v.76c2.07,.16,2.28,.38,2.28,3.31v9.51c0,2.93-.22,3.15-2.55,3.31v.76h13.26c.22-.76,.82-3.53,.92-4.46l-.82-.16c-.46,1.31-.92,2.23-1.38,2.74-.57,.68-1.82,.79-3.18,.79-1.14,0-2.12-.03-2.61-.35-.49-.35-.6-1.11-.6-2.69v-4.46h2.34c2.34,0,2.39,.11,2.66,2.25h.87v-5.76h-.87c-.27,2.09-.33,2.25-2.66,2.25h-2.34V5.07c0-.98,.05-.98,1.09-.98h1.36c1.68,0,2.55,.16,3.02,.62,.41,.41,.73,1.17,1,2.47l.82-.06c-.16-1.68-.27-3.69-.33-4.13h-12.28Z"/><path class="cls-4" d="M166.87,7.3c.33-1.3,.65-2.01,.98-2.39,.43-.49,1.14-.81,3.48-.81h.92v12.5c0,2.93-.22,3.15-2.61,3.31v.76h8.37v-.76c-2.5-.16-2.71-.38-2.71-3.31V4.09h1.41c1.68,0,2.55,.16,3.01,.68,.41,.41,.73,1.11,1.01,2.53l.81-.05c-.16-1.74-.27-3.8-.33-4.94h-.43c-.44,.54-.6,.71-1.3,.71h-11.19c-.76,0-1.03-.05-1.41-.71h-.49c-.05,1.41-.22,3.21-.33,5h.81Z"/><path class="cls-4" d="M113.91,4.23c0-2.34,1.89-4.23,4.23-4.23s4.23,1.89,4.23,4.23-1.89,4.23-4.23,4.23-4.23-1.89-4.23-4.23"/><path class="cls-4" d="M104.44,12.31c0-5.1,4.13-9.23,9.23-9.23,.12,0,.25,0,.37,0l-1.54,2.12c-1.33,1.84-.93,4.41,.91,5.74,1.84,1.33,4.41,.93,5.74-.91l2.14-2.94c1.02,1.48,1.61,3.28,1.61,5.21,0,5.1-4.13,9.23-9.23,9.23s-9.23-4.13-9.23-9.23"/><path class="cls-4" d="M150.84,17.17c0,2.24-.22,2.46-1.93,2.63v.91h7.16v-.91c-1.82-.17-2.1-.39-2.04-2.63v-4.98c.44-.08,.8,0,1.24,.8,1.55,2.74,3.29,5.75,4.59,7.71h4.73v-.91c-1.02-.14-1.46-.5-2.46-1.88-1.71-2.35-3.59-5.56-4.95-7.93,.94-1.22,2.16-2.71,3.48-4.12,1.44-1.52,2.05-1.74,3.51-1.91v-.91h-6.16v.91l.5,.05c.91,.14,1.05,.5,.52,1.3-.94,1.52-2.46,3.54-3.57,4.75-.5,.5-.97,.91-1.44,1.08V6.58c0-2.24,.22-2.46,1.93-2.63v-.91h-7.16v.91c1.83,.17,2.05,.39,2.05,2.63v10.59Z"/></g></g></svg>